<?xml version="1.0" encoding="UTF-8" standalone="no"?>
<!-- Created with Inkscape (http://www.inkscape.org/) -->

<svg
   width="211.33333mm"
   height="204.66667mm"
   viewBox="0 0 211.33333 204.66667"
   version="1.1"
   id="svg1"
   xml:space="preserve"
   inkscape:version="1.3.2 (091e20e, 2023-11-25, custom)"
   sodipodi:docname="GTN750.svg"
   xmlns:inkscape="http://www.inkscape.org/namespaces/inkscape"
   xmlns:sodipodi="http://sodipodi.sourceforge.net/DTD/sodipodi-0.dtd"
   xmlns="http://www.w3.org/2000/svg"
   xmlns:svg="http://www.w3.org/2000/svg"><sodipodi:namedview
     id="namedview1"
     pagecolor="#ffffff"
     bordercolor="#000000"
     borderopacity="0.25"
     inkscape:showpageshadow="2"
     inkscape:pageopacity="0.0"
     inkscape:pagecheckerboard="true"
     inkscape:deskcolor="#d1d1d1"
     inkscape:document-units="mm"
     inkscape:zoom="1"
     inkscape:cx="83"
     inkscape:cy="459.5"
     inkscape:window-width="2560"
     inkscape:window-height="1369"
     inkscape:window-x="-8"
     inkscape:window-y="201"
     inkscape:window-maximized="1"
     inkscape:current-layer="layer1" /><defs
     id="defs1"><marker
       style="overflow:visible"
       id="Triangle"
       refX="0"
       refY="0"
       orient="auto-start-reverse"
       inkscape:stockid="Triangle arrow"
       markerWidth="0.4"
       markerHeight="0.4"
       viewBox="0 0 1 1"
       inkscape:isstock="true"
       inkscape:collect="always"
       preserveAspectRatio="xMidYMid"><path
         transform="scale(0.5)"
         style="fill:context-stroke;fill-rule:evenodd;stroke:context-stroke;stroke-width:1pt"
         d="M 5.77,0 -2.88,5 V -5 Z"
         id="path135" /></marker><inkscape:path-effect
       effect="powerclip"
       id="path-effect8"
       is_visible="true"
       lpeversion="1"
       inverse="true"
       flatten="false"
       hide_clip="false"
       message="Use fill-rule evenodd on &lt;b&gt;fill and stroke&lt;/b&gt; dialogue if no flatten result after convert clip to paths." /><inkscape:path-effect
       effect="powerclip"
       id="path-effect7"
       is_visible="true"
       lpeversion="1"
       inverse="true"
       flatten="false"
       hide_clip="false"
       message="Use fill-rule evenodd on &lt;b&gt;fill and stroke&lt;/b&gt; dialogue if no flatten result after convert clip to paths." /><path
       d="M 265.682,27.688 L 239.69,27.687 C 238.737,27.687 237.919,27.213 237.443,26.388 C 236.967,25.563 236.967,24.619 237.444,23.794 L 250.441,1.296 C 250.917,0.472 251.734,0 252.687,0 C 253.639,0 254.457,0.472 254.933,1.296 L 267.928,23.795 C 268.406,24.62 268.406,25.565 267.929,26.39 C 267.453,27.214 266.635,27.688 265.682,27.688 z "
       id="XMLID_1_" /><rect
       x="189.20724"
       y="268.96646"
       width="40.763203"
       height="23.091295"
       id="rect11-9" /><rect
       x="189.20724"
       y="268.96646"
       width="40.763203"
       height="23.091295"
       id="rect4" /><filter
       id="mask-powermask-path-effect6_inverse"
       inkscape:label="filtermask-powermask-path-effect6"
       style="color-interpolation-filters:sRGB"
       height="100"
       width="100"
       x="-50"
       y="-50"><feColorMatrix
         id="mask-powermask-path-effect6_primitive1"
         values="1"
         type="saturate"
         result="fbSourceGraphic" /><feColorMatrix
         id="mask-powermask-path-effect6_primitive2"
         values="-1 0 0 0 1 0 -1 0 0 1 0 0 -1 0 1 0 0 0 1 0 "
         in="fbSourceGraphic" /></filter><clipPath
       clipPathUnits="userSpaceOnUse"
       id="clipPath7"><rect
         style="display:none;fill:#ffffff;fill-opacity:1;stroke:#1b252e;stroke-width:0;stroke-linecap:round;stroke-linejoin:miter;stroke-miterlimit:3.3;stroke-dasharray:none;stroke-dashoffset:0;stroke-opacity:1"
         id="rect7"
         width="156.13719"
         height="184.38763"
         x="25"
         y="8.2790413"
         rx="0.77843732"
         d="M 25.778437,8.2790413 H 180.35875 c 0.43126,0 0.77844,0.347183 0.77844,0.7784373 V 191.88824 c 0,0.43125 -0.34718,0.77844 -0.77844,0.77844 H 25.778437 C 25.347183,192.66668 25,192.31949 25,191.88824 V 9.0574786 c 0,-0.4312543 0.347183,-0.7784373 0.778437,-0.7784373 z" /><path
         id="lpe_path-effect7"
         style="fill:#ffffff;fill-opacity:1;stroke:#1b252e;stroke-width:0;stroke-linecap:round;stroke-linejoin:miter;stroke-miterlimit:3.3;stroke-dasharray:none;stroke-dashoffset:0;stroke-opacity:1"
         class="powerclip"
         d="M 12.25,-3.3333334 H 195.70941 V 207.02995 H 12.25 Z M 25.778437,8.2790413 C 25.347183,8.2790413 25,8.6262243 25,9.0574786 V 191.88824 c 0,0.43125 0.347183,0.77844 0.778437,0.77844 H 180.35875 c 0.43126,0 0.77844,-0.34719 0.77844,-0.77844 V 9.0574786 c 0,-0.4312543 -0.34718,-0.7784373 -0.77844,-0.7784373 z" /></clipPath><clipPath
       clipPathUnits="userSpaceOnUse"
       id="clipPath8"><rect
         style="display:none;fill:#ffffff;fill-opacity:1;stroke:#1b252e;stroke-width:0;stroke-linecap:round;stroke-linejoin:miter;stroke-miterlimit:3.3;stroke-dasharray:none;stroke-dashoffset:0;stroke-opacity:1"
         id="rect8"
         width="156.13719"
         height="184.38763"
         x="25"
         y="8.2790413"
         rx="0.77843732"
         d="M 25.778437,8.2790413 H 180.35875 c 0.43126,0 0.77844,0.347183 0.77844,0.7784373 V 191.88824 c 0,0.43125 -0.34718,0.77844 -0.77844,0.77844 H 25.778437 C 25.347183,192.66668 25,192.31949 25,191.88824 V 9.0574786 c 0,-0.4312543 0.347183,-0.7784373 0.778437,-0.7784373 z" /><path
         id="lpe_path-effect8"
         style="display:inline;fill:#ffffff;fill-opacity:1;stroke:#1b252e;stroke-width:0;stroke-linecap:round;stroke-linejoin:miter;stroke-miterlimit:3.3;stroke-dasharray:none;stroke-dashoffset:0;stroke-opacity:1"
         class="powerclip"
         d="M -5,-5 H 216.33333 V 209.66667 H -5 Z M 25.778437,8.2790413 C 25.347183,8.2790413 25,8.6262243 25,9.0574786 V 191.88824 c 0,0.43125 0.347183,0.77844 0.778437,0.77844 H 180.35875 c 0.43126,0 0.77844,-0.34719 0.77844,-0.77844 V 9.0574786 c 0,-0.4312543 -0.34718,-0.7784373 -0.77844,-0.7784373 z" /></clipPath></defs><g
     inkscape:label="Layer 1"
     inkscape:groupmode="layer"
     id="layer1"><path
       style="display:inline;fill:#313131;fill-opacity:1;stroke:#313131;stroke-width:0;stroke-miterlimit:3.3;stroke-opacity:1"
       id="rect1"
       width="211.33333"
       height="204.66667"
       x="0"
       y="0"
       rx="0.77843732"
       clip-path="url(#clipPath8)"
       inkscape:path-effect="#path-effect8"
       sodipodi:type="rect"
       d="M 0.77843732,0 H 210.55489 c 0.43126,0 0.77844,0.34718304 0.77844,0.77843732 V 203.88823 c 0,0.43126 -0.34718,0.77844 -0.77844,0.77844 H 0.77843732 C 0.34718304,204.66667 0,204.31949 0,203.88823 V 0.77843732 C 0,0.34718304 0.34718304,0 0.77843732,0 Z" /><g
       id="g8"
       inkscape:label="decoration"
       style="display:inline"><circle
         style="fill:#000000;fill-opacity:1;stroke:#000000;stroke-width:0;stroke-linecap:round;stroke-miterlimit:3.3;stroke-dasharray:none;stroke-opacity:1"
         id="path8"
         cx="9.3102398"
         cy="195.98642"
         r="4" /><circle
         style="display:inline;fill:#949494;fill-opacity:1;stroke:#000000;stroke-width:0;stroke-linecap:round;stroke-miterlimit:3.3;stroke-dasharray:none;stroke-opacity:1"
         id="circle8"
         cx="200.46477"
         cy="9.6006689"
         r="4" /><rect
         style="fill:#000000;fill-opacity:1;stroke:#000000;stroke-width:0;stroke-linecap:round;stroke-miterlimit:3.3;stroke-dasharray:none;stroke-opacity:1"
         id="rect9"
         width="7.1889191"
         height="35.591042"
         x="6.5996633"
         y="34.294678"
         rx="2.1337304" /><path
         style="fill:#242424;fill-opacity:1;stroke:#000000;stroke-width:0;stroke-linecap:round;stroke-miterlimit:3.3;stroke-dasharray:none;stroke-opacity:1"
         d="M 211.16667,18.833333 193.75498,48.99125 c 0,0 -1.01388,1.725668 -1.01388,3.783875 v 111.273645 2.23917 c 0,0 -0.22211,1.64175 1.53285,2.65498 1.75496,1.01322 16.81305,9.68492 16.81305,9.68492 l 0.24597,-7.8e-4 -0.003,-159.817256 z"
         id="path9"
         sodipodi:nodetypes="ccsccscccc" /><path
         style="fill:#242424;fill-opacity:1;stroke:#000000;stroke-width:0;stroke-linecap:round;stroke-miterlimit:3.3;stroke-dasharray:none;stroke-opacity:1"
         d="M 0.00103352,69.084154 12.369271,89.36302 v 79.77187 L 0.00693568,189.64302 Z"
         id="path10"
         sodipodi:nodetypes="ccccc" /><path
         style="fill:#434343;fill-opacity:1;stroke:#000000;stroke-width:0;stroke-linecap:round;stroke-miterlimit:3.3;stroke-dasharray:none;stroke-opacity:1"
         d="M 211.16667,18.833333 193.75498,48.99125 c 0,0 -1.01388,1.725668 -1.01388,3.783875 v 64.773125 2.23917 c 0,0 -0.15195,1.43128 1.53285,2.65498 1.63961,1.19088 17.05729,13.33086 17.05729,13.33086 l 0.002,-3.64672 -0.003,-113.316736 z"
         id="path11"
         sodipodi:nodetypes="ccsccscccc" /></g><path
       style="fill:#000000;fill-opacity:1;stroke:#000000;stroke-width:0;stroke-linecap:round;stroke-miterlimit:3.3;stroke-dasharray:none;stroke-opacity:1"
       id="rect5"
       width="173.45941"
       height="200.36328"
       x="17.25"
       y="1.6666666"
       rx="2.1337304"
       clip-path="url(#clipPath7)"
       inkscape:path-effect="#path-effect7"
       sodipodi:type="rect"
       d="m 19.38373,1.6666666 h 169.19195 c 1.18209,0 2.13373,0.9516438 2.13373,2.1337304 V 199.89622 c 0,1.18208 -0.95164,2.13373 -2.13373,2.13373 H 19.38373 c -1.182086,0 -2.13373,-0.95165 -2.13373,-2.13373 V 3.800397 c 0,-1.1820866 0.951644,-2.1337304 2.13373,-2.1337304 z" /><g
       id="g2"
       inkscape:label="btns"><ellipse
         style="fill:#000000;fill-opacity:1;stroke:#000000;stroke-width:1.2911;stroke-linecap:round;stroke-linejoin:miter;stroke-miterlimit:3.3;stroke-dasharray:2.58222, 2.58222;stroke-dashoffset:0;stroke-opacity:1"
         id="path1-7-5"
         cx="199.06595"
         cy="189.81064"
         rx="10.861246"
         ry="10.858965"
         onclick="buttonPressed()" class="BTN RTRY" inkscape:label="RTRY:RBIG" /><ellipse
         style="fill:#505050;fill-opacity:1;stroke:#505050;stroke-width:0.673511;stroke-linecap:round;stroke-linejoin:miter;stroke-miterlimit:3.3;stroke-dasharray:1.34702, 1.34702;stroke-dashoffset:0;stroke-opacity:1"
         id="path1-7"
         cx="199.06927"
         cy="189.81314"
         onclick="buttonPressed()" class="BTN RTRY" inkscape:label="RTRY:RSMALL"
         rx="5.6666307"
         ry="5.6637926" /><circle
         style="display:inline;fill:#505050;fill-opacity:1;stroke:#505050;stroke-width:0.8;stroke-linecap:round;stroke-linejoin:miter;stroke-miterlimit:3.3;stroke-dasharray:1.6, 1.6;stroke-dashoffset:0;stroke-opacity:1"
         id="path1"
         cx="10.437501"
         cy="10.270834"
         r="6.7291665"
         onclick="buttonPressed()" class="BTN RTRY" inkscape:label="RTRY:VOL" /><g
         id="g3-25-4-6-5"
         onclick="buttonPressed()" class="BTN" inkscape:label="BTN:HOME"
         transform="matrix(1.4840696,0,0,1.6069044,59.638085,112.1853)"
         style="display:inline"><rect
           style="fill:#101316;fill-opacity:1;fill-rule:evenodd;stroke:#101316;stroke-width:1.368;stroke-linejoin:miter;stroke-dasharray:none;stroke-opacity:1"
           id="rect3-8-8-5-96"
           width="5.6538715"
           height="3.1191075"
           x="92.153389"
           y="18.839785"
           rx="0.00066790276"
           ry="0.00070384418" /><text
           xml:space="preserve"
           transform="matrix(0.17671593,0,0,0.18622544,57.922097,-29.546327)"
           id="text10-1"
           style="font-style:normal;font-variant:normal;font-weight:normal;font-stretch:normal;font-size:9.33333px;line-height:0;font-family:Arial;-inkscape-font-specification:Arial;text-align:center;letter-spacing:0.5px;word-spacing:0px;white-space:pre;shape-inside:url(#rect11-9);display:inline;fill:#ffffff;fill-opacity:1;fill-rule:evenodd;stroke:#ffffff;stroke-width:0.377953;stroke-linecap:square;stroke-linejoin:miter;stroke-miterlimit:3.3;stroke-dasharray:none;stroke-opacity:1"><tspan
             x="194.83887"
             y="271.5405"
             id="tspan2">HOME</tspan></text></g><g
         id="g3"
         onclick="buttonPressed()" class="BTN" inkscape:label="BTN:DIRECT"
         transform="matrix(1.4840696,0,0,1.6069044,59.638085,130.35197)"
         style="display:inline"><rect
           style="fill:#101316;fill-opacity:1;fill-rule:evenodd;stroke:#101316;stroke-width:1.368;stroke-linejoin:miter;stroke-dasharray:none;stroke-opacity:1"
           id="rect3"
           width="5.6538715"
           height="3.1191075"
           x="92.153389"
           y="18.839785"
           rx="0.00066790276"
           ry="0.00070384418" /><path
           style="fill:#ffffff;fill-opacity:1;stroke:#ffffff;stroke-width:0.323778;stroke-linecap:butt;stroke-miterlimit:3.3;stroke-dasharray:none;stroke-opacity:1;marker-end:url(#Triangle)"
           d="m 93.645601,20.425802 2.615841,-0.02912"
           id="path12" /><text
           xml:space="preserve"
           transform="matrix(0.17671593,0,0,0.18622544,57.918674,-29.515725)"
           id="text3"
           style="font-style:normal;font-variant:normal;font-weight:normal;font-stretch:normal;font-size:11.3335px;line-height:0;font-family:Arial;-inkscape-font-specification:Arial;text-align:center;letter-spacing:0.5px;word-spacing:0px;white-space:pre;shape-inside:url(#rect4);display:inline;fill:#ffffff;fill-opacity:1;fill-rule:evenodd;stroke:#ffffff;stroke-width:0.377953;stroke-linecap:square;stroke-linejoin:miter;stroke-miterlimit:3.3;stroke-dasharray:none;stroke-opacity:1"><tspan
             x="205.49652"
             y="272.09206"
             id="tspan4">D</tspan></text></g></g><g
       transform="matrix(0.07599954,0,0,0.07599954,93.666875,1.47008)"
       id="g2231"
       style="display:inline;fill:#ffffff;fill-opacity:1"
       inkscape:label="garmin_logo">
	<g
   id="g2233"
   style="fill:#ffffff;fill-opacity:1">
		<path
   d="m 75.2,39.37 c -0.479,-0.964 -1.754,-1.751 -2.833,-1.751 h -2.193 c -1.077,0 -2.337,0.796 -2.803,1.767 L 49.985,75.708 c -0.483,0.961 0.042,1.649 1.121,1.649 h 4.018 c 1.586,0 2.313,-0.721 2.742,-1.605 0.431,-0.884 1.389,-2.805 1.572,-3.197 0.248,-0.53 1.012,-0.855 2.089,-0.854 l 18.707,0.01 c 1.078,0.002 1.771,0.207 2.09,0.844 0.208,0.415 1.164,2.143 1.634,3.086 0.474,0.943 1.27,1.716 2.815,1.716 h 5.83 c 1.078,0 1.55,-0.818 1.162,-1.578 C 93.375,75.017 75.2,39.37 75.2,39.37 Z M 64.216,66.091 c -1.077,0 -1.584,-0.802 -1.131,-1.777 l 6.851,-14.677 c 0.456,-0.978 1.193,-0.971 1.638,0.006 l 6.67,14.677 c 0.445,0.979 -0.072,1.781 -1.148,1.781 z m 145.327,-26.44 c 0,0.351 0,35.328 0,36.034 0,0.992 0.881,1.672 1.96,1.672 h 4.751 c 1.077,0 1.959,-0.688 1.959,-1.766 V 39.578 c 0,-1.079 -0.696,-1.958 -1.773,-1.958 h -4.937 c -1.079,-10e-4 -1.96,0.662 -1.96,2.031 z m -79.616,22.57 c -0.619,-0.882 -0.279,-1.856 0.752,-2.164 0,0 4.105,-1.229 6.07,-2.991 1.966,-1.767 2.954,-4.318 2.954,-7.643 0,-2.174 -0.38,-4.002 -1.137,-5.489 -0.757,-1.483 -1.842,-2.697 -3.254,-3.626 -1.412,-0.934 -3.102,-1.619 -5.07,-2.048 -1.971,-0.427 -4.63,-0.552 -4.63,-0.552 -1.078,-0.049 -2.839,-0.089 -3.915,-0.089 h -19.73 c -1.076,0 -1.958,0.879 -1.958,1.958 v 36.014 c 0,1.079 0.881,1.766 1.958,1.766 h 4.669 c 1.078,0 1.959,-0.688 1.959,-1.766 0,0 0.003,-14.324 0.012,-14.324 0.008,0 0.013,-0.008 0.013,-0.018 0,-0.012 8.851,-0.022 8.851,-0.022 1.076,0 2.466,0.72 3.089,1.602 l 9.188,12.937 c 0.854,1.146 1.666,1.591 2.743,1.591 h 6.103 c 1.078,0 1.247,-1.016 0.874,-1.544 -0.369,-0.525 -9.541,-13.592 -9.541,-13.592 z m -3.715,-7.314 c -1.209,0.278 -2.57,0.334 -2.57,0.334 -1.076,0.047 -2.837,0.085 -3.915,0.085 h -9.146 c -1.078,0 -1.959,-0.882 -1.959,-1.959 V 46.07 c 0,-1.078 0.881,-1.959 1.959,-1.959 h 9.146 c 1.078,0 2.839,0.039 3.915,0.084 0,0 1.361,0.054 2.57,0.333 1.209,0.279 2.168,0.668 2.87,1.171 0.705,0.506 1.208,1.099 1.512,1.781 0.3,0.682 0.453,1.425 0.453,2.236 0,0.807 -0.153,1.554 -0.453,2.235 -0.304,0.682 -0.807,1.275 -1.512,1.781 -0.702,0.506 -1.661,0.9 -2.87,1.175 z M 267.875,37.619 c -1.077,0 -1.948,0.71 -1.948,1.748 0,0.498 0.012,23.036 0.012,23.036 0,1.08 -0.61,1.325 -1.358,0.549 L 241.515,39.027 c -0.749,-0.776 -1.845,-1.408 -3.321,-1.408 h -4.338 c -1.364,0 -1.961,0.728 -1.961,1.465 0,0.734 0,36.099 0,36.837 0,0.735 0.7,1.436 1.779,1.436 h 4.345 c 1.075,0 1.829,-0.586 1.829,-1.578 0,-0.498 0.022,-24.268 0.022,-24.268 0,-1.077 0.609,-1.323 1.355,-0.545 l 24.051,25.003 c 0.764,0.765 1.692,1.388 3.343,1.388 h 3.264 c 1.079,0 1.96,-0.881 1.96,-1.959 v -35.82 c 0,-1.079 -0.881,-1.958 -1.96,-1.958 h -4.008 z m -94.043,22.462 c -0.523,0.941 -1.384,0.938 -1.9,-0.005 L 160.657,39.37 c -0.479,-0.961 -1.462,-1.751 -2.832,-1.751 h -6.115 c -1.078,0 -1.961,0.879 -1.961,1.958 v 35.968 c 0,1.076 0.708,1.812 1.961,1.812 h 3.801 c 1.079,0 1.856,-0.68 1.856,-1.719 0,-0.498 0.016,-26.16 0.057,-26.16 0.042,0 14.073,26.153 14.073,26.153 0.508,0.949 1.755,0.953 2.273,0.008 0,0 14.146,-26.086 14.188,-26.086 0.044,0 0.028,25.336 0.028,26.085 0,1.04 0.831,1.719 1.91,1.719 h 4.378 c 1.079,0 1.958,-0.537 1.958,-1.959 v -35.82 c 0,-1.079 -0.879,-1.958 -1.958,-1.958 h -5.862 c -1.496,0 -2.396,0.763 -2.931,1.7 z"
   id="path2235"
   style="fill:#ffffff;fill-opacity:1" />
	</g>
	<g
   id="g2237"
   style="fill:#ffffff;fill-opacity:1">
		<path
   d="m 0,57.453 c 0,19.405 19.848,20.389 23.828,20.389 13.171,0 18.737,-3.559 18.968,-3.713 0.824,-0.466 1.827,-1.406 1.827,-3.167 V 57.568 c 0,-1.234 -1.005,-2.239 -2.24,-2.239 H 25.836 c -1.237,0 -2.049,1.005 -2.049,2.239 v 1.387 c 0,1.236 0.812,2.244 2.049,2.244 h 9.571 c 0.924,0 1.675,0.75 1.675,1.674 0,0 -0.009,5.871 -0.009,6.243 C 35.182,69.888 26.57,72.404 19.65,70.754 9.612,68.353 8.83,60.072 8.83,57.591 c 0,-2.082 0.624,-12.512 12.952,-13.567 9.979,-0.854 16.55,3.175 16.615,3.214 1.173,0.608 2.387,0.175 3.041,-1.067 0.003,-0.01 1.245,-2.523 1.245,-2.523 C 43.2,42.614 43.026,41.542 41.764,40.686 41.68,40.638 34.685,36.845 23.83,36.845 0.668,36.846 0,55.344 0,57.453 Z"
   id="path2239"
   style="fill:#ffffff;fill-opacity:1" />
	</g>
	
	
</g></g>

	<style>
    .BTN > rect {
        cursor: pointer

    }
    .BTN {
        cursor: pointer
    }
    text {user-select: none}
</style></svg>
